<svg width="511" height="511" viewBox="0 0 511 511" fill="none" xmlns="http://www.w3.org/2000/svg">
<path d="M457.156 450.723L384.416 379.129C409.602 350.855 422.613 314.074 420.701 276.555C418.789 239.036 402.103 203.716 374.167 178.053C346.231 152.39 309.233 138.394 270.985 139.02C232.737 139.646 196.234 154.846 169.185 181.409C142.136 207.972 126.658 243.819 126.021 281.38C125.383 318.941 139.635 355.275 165.767 382.709C191.9 410.143 227.866 426.529 266.072 428.407C304.277 430.285 341.73 417.508 370.521 392.774L443.425 464.207C445.246 465.995 447.716 467 450.291 467C452.866 467 455.335 465.995 457.156 464.207C458.977 462.419 460 459.994 460 457.465C460 454.936 458.977 452.511 457.156 450.723ZM146.252 284.098C146.252 259.334 153.73 235.126 167.739 214.535C181.749 193.944 201.662 177.896 224.96 168.419C248.257 158.942 273.893 156.463 298.626 161.294C323.359 166.125 346.077 178.05 363.908 195.561C381.74 213.072 393.883 235.382 398.802 259.671C403.722 283.959 401.197 309.134 391.547 332.014C381.897 354.893 365.555 374.448 344.587 388.206C323.62 401.964 298.969 409.308 273.752 409.308C239.95 409.265 207.545 396.06 183.644 372.588C159.742 349.115 146.295 317.292 146.252 284.098Z" fill="#363636"/>
<path d="M315.188 308.062C316.704 308.061 318.157 307.463 319.229 306.399C320.301 305.336 320.904 303.894 320.906 302.391V245.672C320.904 244.168 320.301 242.726 319.229 241.663C318.157 240.6 316.704 240.002 315.188 240H227.5C225.984 240.002 224.53 240.6 223.458 241.663C222.386 242.726 221.783 244.168 221.781 245.672V302.391C221.783 303.894 222.386 305.336 223.458 306.399C224.53 307.463 225.984 308.061 227.5 308.062H315.188ZM229.406 247.562H313.281V300.5H229.406V247.562ZM214.156 315.625H328.531V323.188H214.156V315.625Z" fill="#ED7A11"/>
<rect x="210" y="315.242" width="121" height="8" rx="4" fill="#427AAA"/>
<path d="M109.735 292.652L45.3156 281.057L52.2678 242.431L59.1879 243.676L53.6397 274.502L75.4064 278.42L80.4338 250.488L87.3538 251.733L82.3264 279.665L111.139 284.851L109.735 292.652Z" fill="#334662"/>
<path d="M60.0782 217.686L122.431 237.597L120.02 245.147L57.6671 225.236L60.0782 217.686Z" fill="#334662"/>
<path d="M91.4903 149.965L149.214 180.824L145.598 187.588L83.4602 194.814L83.1588 195.378L128.481 219.607L124.744 226.597L67.0204 195.738L70.6367 188.974L132.947 181.695L133.249 181.131L87.8138 156.842L91.4903 149.965Z" fill="#334662"/>
<path d="M167.175 162.796L152.158 176.305L108.383 127.642L124.065 113.535C128.785 109.288 133.701 106.629 138.812 105.557C143.909 104.468 148.984 104.933 154.037 106.95C159.076 108.951 163.861 112.471 168.392 117.508C172.952 122.577 175.975 127.754 177.461 133.037C178.933 138.305 178.825 143.474 177.139 148.545C175.438 153.6 172.117 158.35 167.175 162.796ZM153.348 165.776L162.092 157.911C166.116 154.291 168.752 150.515 170.001 146.583C171.25 142.651 171.234 138.667 169.954 134.632C168.674 130.596 166.252 126.598 162.69 122.638C159.156 118.71 155.472 115.905 151.638 114.223C147.79 112.526 143.907 112.064 139.989 112.838C136.056 113.596 132.189 115.684 128.387 119.104L118.978 127.569L153.348 165.776Z" fill="#334662"/>
<path d="M218.925 66.0922L226.67 64.4101L236.6 110.134C237.486 114.215 237.489 117.845 236.61 121.023C235.73 124.201 234.087 126.825 231.68 128.896C229.274 130.967 226.217 132.404 222.511 133.209C219.013 133.969 215.762 134.01 212.759 133.332C209.751 132.633 207.209 131.267 205.131 129.232C203.054 127.198 201.661 124.546 200.951 121.277L208.572 119.622C208.965 121.434 209.756 122.919 210.946 124.078C212.151 125.211 213.626 125.981 215.372 126.387C217.117 126.793 218.999 126.777 221.019 126.338C223.247 125.854 225.04 124.974 226.398 123.698C227.756 122.422 228.645 120.79 229.063 118.802C229.498 116.789 229.429 114.461 228.854 111.816L218.925 66.0922Z" fill="#ED7A11"/>
<path d="M306.22 100.004C305.495 106.869 303.629 112.671 300.622 117.41C297.615 122.149 293.807 125.646 289.198 127.902C284.589 130.158 279.509 130.993 273.958 130.407C268.406 129.821 263.612 127.944 259.576 124.775C255.54 121.606 252.546 117.391 250.595 112.129C248.644 106.866 248.03 100.803 248.755 93.9372C249.48 87.072 251.346 81.2699 254.353 76.531C257.36 71.7921 261.168 68.2947 265.777 66.0389C270.386 63.783 275.466 62.9481 281.018 63.5342C286.569 64.1203 291.363 65.9976 295.399 69.1661C299.435 72.3347 302.429 76.5501 304.38 81.8125C306.332 87.0748 306.945 93.1386 306.22 100.004ZM298.592 99.1986C299.187 93.5623 298.746 88.7058 297.27 84.6291C295.815 80.5546 293.592 77.3526 290.603 75.0231C287.635 72.6958 284.18 71.3241 280.239 70.908C276.298 70.4919 272.622 71.1109 269.213 72.7649C265.824 74.4211 262.982 77.0885 260.687 80.767C258.413 84.4477 256.978 89.1063 256.383 94.7426C255.788 100.379 256.218 105.234 257.674 109.309C259.15 113.385 261.372 116.587 264.341 118.915C267.33 121.244 270.795 122.617 274.736 123.033C278.677 123.449 282.342 122.829 285.731 121.173C289.141 119.519 291.983 116.852 294.257 113.171C296.552 109.492 297.997 104.835 298.592 99.1986Z" fill="#ED7A11"/>
<path d="M309.82 134.215L322.72 70.0447L345.155 74.5548C349.625 75.4534 353.157 76.9675 355.75 79.0969C358.347 81.2055 360.095 83.6977 360.995 86.5735C361.899 89.4284 362.036 92.4225 361.406 95.5558C360.851 98.3132 359.903 100.491 358.56 102.09C357.238 103.694 355.678 104.858 353.881 105.583C352.104 106.313 350.246 106.743 348.307 106.875L348.181 107.502C350.12 108.022 351.955 109.108 353.687 110.76C355.42 112.413 356.719 114.543 357.586 117.151C358.453 119.76 358.546 122.756 357.865 126.14C357.219 129.357 355.906 132.103 353.927 134.378C351.949 136.654 349.231 138.226 345.774 139.096C342.318 139.966 338.062 139.893 333.007 138.877L309.82 134.215ZM318.977 128.884L334.393 131.983C339.469 133.004 343.269 132.746 345.795 131.211C348.345 129.659 349.904 127.473 350.471 124.653C350.908 122.481 350.757 120.364 350.02 118.303C349.286 116.222 348.007 114.422 346.183 112.903C344.362 111.363 342.053 110.312 339.253 109.75L323.461 106.575L318.977 128.884ZM324.822 99.8069L339.235 102.704C341.575 103.175 343.777 103.139 345.842 102.598C347.927 102.061 349.692 101.068 351.135 99.6198C352.599 98.1755 353.558 96.3253 354.011 94.0693C354.578 91.2493 354.077 88.6601 352.508 86.3018C350.944 83.9227 348.031 82.3047 343.769 81.4481L329.105 78.5002L324.822 99.8069Z" fill="#ED7A11"/>
</svg>
