<svg width="461" height="447" viewBox="0 0 461 447" fill="none" xmlns="http://www.w3.org/2000/svg">
<path d="M413.156 387.723L340.416 316.129C365.602 287.855 378.613 251.074 376.701 213.555C374.789 176.036 358.103 140.716 330.167 115.053C302.231 89.3901 265.233 75.3939 226.985 76.0201C188.737 76.6464 152.234 91.846 125.185 118.409C98.1359 144.972 82.6582 180.819 82.0205 218.38C81.3828 255.941 95.6351 292.275 121.767 319.709C147.9 347.143 183.866 363.529 222.072 365.407C260.277 367.285 297.73 354.508 326.521 329.774L399.425 401.207C401.246 402.995 403.716 404 406.291 404C408.866 404 411.335 402.995 413.156 401.207C414.977 399.419 416 396.994 416 394.465C416 391.937 414.977 389.511 413.156 387.723ZM102.252 221.098C102.252 196.334 109.73 172.126 123.739 151.535C137.749 130.944 157.662 114.896 180.96 105.419C204.257 95.9422 229.893 93.4626 254.626 98.2938C279.359 103.125 302.077 115.05 319.908 132.561C337.74 150.072 349.883 172.382 354.802 196.671C359.722 220.959 357.197 246.134 347.547 269.014C337.897 291.893 321.555 311.448 300.587 325.206C279.62 338.964 254.969 346.308 229.752 346.308C195.95 346.265 163.545 333.06 139.644 309.588C115.742 286.115 102.295 254.292 102.252 221.098Z" fill="#363636"/>
<path d="M271.186 245.063C272.702 245.061 274.155 244.463 275.227 243.399C276.299 242.336 276.903 240.894 276.904 239.391V182.672C276.903 181.168 276.299 179.726 275.227 178.663C274.155 177.6 272.702 177.002 271.186 177H183.498C181.982 177.002 180.528 177.6 179.456 178.663C178.384 179.726 177.781 181.168 177.779 182.672V239.391C177.781 240.894 178.384 242.336 179.456 243.399C180.528 244.463 181.982 245.061 183.498 245.063H271.186ZM185.404 184.563H269.279V237.5H185.404V184.563ZM170.154 252.625H284.529V260.188H170.154V252.625Z" fill="#ED7A11"/>
<rect x="166" y="252.243" width="121" height="8" rx="4" fill="#427AAA"/>
<path d="M88.793 315.158L27.3935 337.838L13.7942 301.022L20.3899 298.586L31.2427 327.966L51.989 320.303L42.155 293.681L48.7507 291.244L58.5847 317.867L86.0466 307.723L88.793 315.158Z" fill="#334662"/>
<path d="M7.97614 275.734L71.8125 261.27L73.564 269L9.72769 283.465L7.97614 275.734Z" fill="#334662"/>
<path d="M0.701225 201.439L66.1008 198.757L66.4151 206.421L16.5277 244.164L16.5539 244.803L67.9028 242.697L68.2276 250.617L2.82797 253.299L2.51368 245.635L52.5236 207.758L52.4974 207.12L1.02076 209.231L0.701225 201.439Z" fill="#334662"/>
<path d="M72.4357 174.11L66.345 193.369L3.93702 173.632L10.2975 153.52C12.2121 147.466 15.0998 142.681 18.9606 139.164C22.8011 135.641 27.4105 133.468 32.7886 132.643C38.1465 131.813 44.0555 132.419 50.5157 134.462C57.0165 136.518 62.2471 139.446 66.2075 143.246C70.1475 147.039 72.6768 151.549 73.7952 156.774C74.8934 161.993 74.4402 167.772 72.4357 174.11ZM62.031 183.692L65.5775 172.478C67.2094 167.318 67.5664 162.726 66.6484 158.704C65.7305 154.682 63.6964 151.256 60.5462 148.428C57.396 145.599 53.2815 143.382 48.2027 141.775C43.1646 140.182 38.5671 139.633 34.4103 140.129C30.2332 140.618 26.6523 142.189 23.6677 144.843C20.6627 147.491 18.3893 151.252 16.8473 156.128L13.031 168.195L62.031 183.692Z" fill="#334662"/>
<path d="M67.9865 64.5213L73.8088 59.1432L105.557 93.5135C108.391 96.5811 110.235 99.7075 111.088 102.893C111.942 106.078 111.857 109.173 110.833 112.178C109.809 115.183 107.905 117.973 105.119 120.546C102.489 122.975 99.7083 124.659 96.7761 125.598C93.8294 126.522 90.9451 126.633 88.1231 125.934C85.3011 125.234 82.7552 123.655 80.4854 121.198L86.2138 115.906C87.4716 117.268 88.9068 118.147 90.5196 118.542C92.1335 118.908 93.7955 118.823 95.5054 118.288C97.2154 117.752 98.8295 116.783 100.348 115.381C102.022 113.834 103.121 112.166 103.645 110.378C104.168 108.589 104.106 106.732 103.458 104.807C102.812 102.851 101.571 100.879 99.7349 98.8916L67.9865 64.5213Z" fill="#ED7A11"/>
<path d="M160.422 49.4714C163.279 55.7557 164.614 61.7025 164.426 67.3118C164.238 72.9211 162.73 77.8666 159.902 82.1484C157.074 86.4302 153.119 89.7263 148.037 92.0369C142.955 94.3475 137.872 95.161 132.786 94.4773C127.7 93.7937 122.982 91.6791 118.632 88.1335C114.281 84.5878 110.677 79.6728 107.82 73.3885C104.962 67.1042 103.628 61.1574 103.816 55.5481C104.004 49.9388 105.512 44.9933 108.34 40.7116C111.168 36.4298 115.123 33.1336 120.204 30.823C125.286 28.5125 130.37 27.699 135.455 28.3826C140.541 29.0662 145.259 31.1808 149.61 34.7265C153.96 38.2721 157.564 43.1871 160.422 49.4714ZM153.439 52.6462C151.093 47.4869 148.25 43.5249 144.91 40.7604C141.59 37.987 138.05 36.3545 134.292 35.8629C130.554 35.3625 126.881 35.9325 123.273 37.5729C119.666 39.2132 116.812 41.6108 114.712 44.7657C112.632 47.9118 111.535 51.652 111.423 55.9864C111.33 60.3119 112.456 65.0543 114.802 70.2137C117.148 75.373 119.981 79.3394 123.302 82.1128C126.642 84.8774 130.182 86.5099 133.92 87.0102C137.678 87.5018 141.36 86.9274 144.968 85.2871C148.576 83.6467 151.42 81.2535 153.5 78.1075C155.6 74.9526 156.696 71.2124 156.789 66.8868C156.902 62.5524 155.785 57.8056 153.439 52.6462Z" fill="#ED7A11"/>
<path d="M180.877 77.1309L159.448 15.2835L181.07 7.79171C185.378 6.29894 189.19 5.81266 192.504 6.33287C195.812 6.83294 198.583 8.09403 200.817 10.1161C203.044 12.1181 204.681 14.629 205.727 17.6489C206.648 20.3064 206.935 22.6648 206.589 24.7241C206.262 26.7764 205.509 28.5709 204.327 30.1077C203.166 31.6375 201.783 32.9509 200.179 34.0479L200.389 34.6519C202.323 34.117 204.456 34.1222 206.787 34.6674C209.118 35.2127 211.318 36.3896 213.388 38.198C215.458 40.0064 217.058 42.5413 218.188 45.8028C219.262 48.9032 219.523 51.9358 218.972 54.9004C218.421 57.865 216.876 60.5987 214.339 63.1015C211.801 65.6044 208.096 67.6999 203.224 69.388L180.877 77.1309ZM186.064 67.8922L200.922 62.7442C205.814 61.0491 208.959 58.8996 210.357 56.2957C211.768 53.6646 212.002 50.9901 211.061 48.2722C210.335 46.1784 209.132 44.4305 207.451 43.0285C205.763 41.6064 203.748 40.7037 201.405 40.3203C199.056 39.9167 196.532 40.1823 193.834 41.117L178.614 46.3906L186.064 67.8922ZM176.354 39.8676L190.245 35.0544C192.5 34.2732 194.38 33.1257 195.885 31.6121C197.41 30.0915 198.427 28.341 198.936 26.3607C199.466 24.3734 199.353 22.2926 198.6 20.1183C197.658 17.4004 195.913 15.4231 193.365 14.1863C190.81 12.9294 187.479 13.0125 183.372 14.4355L169.239 19.3323L176.354 39.8676Z" fill="#ED7A11"/>
</svg>
